<svg width="410" height="208" xmlns="http://www.w3.org/2000/svg" xmlns:xlink="http://www.w3.org/1999/xlink"><defs><path id="a" d="M.008.085h13.919V7H.007z"/><path id="c" d="M0 208h410V0H0z"/></defs><g fill="none" fill-rule="evenodd"><path d="M71.549 126.882c-3.293 11.196-5.462 23.765-14.87 31.623-8.698 7.266-21.03 8.554-31.38 4.516-5.949-2.32-10.808-6.638-15.79-10.505-1.496-1.162-3.01.999-2.35 2.369 2.815 5.843 8.427 9.98 14.209 12.588 5.91 2.666 12.415 4.016 18.893 3.365 6.293-.633 12.467-2.903 17.565-6.704 5.237-3.906 9.049-9.117 11.587-15.14 2.907-6.9 4.068-14.341 4.584-21.779.1-1.447-2.06-1.655-2.448-.333m42.063 9.428c2.821-.86 5.97-.641 8.884-.559 3 .085 5.88.469 8.777 1.276 5.79 1.612 11.285 4.39 15.993 8.193 10.436 8.43 16.457 20.88 19.533 33.846.923 3.89 1.584 7.852 2.18 11.805.585 3.884.755 7.925 1.714 11.737.455 1.808 3.314 1.904 3.714 0 .79-3.769.634-7.784.418-11.607a87.57 87.57 0 0 0-1.497-11.842c-1.46-7.474-3.822-14.817-7.448-21.513-6.654-12.287-18.11-22.895-31.786-26.343-3.732-.941-7.746-1.499-11.598-1.24-3.216.218-8.899.861-10.371 4.289-.427.992.283 2.324 1.487 1.957" fill="#F7C037"/><path d="M158.853 99.065c-1.213-2.35-4.197-.387-3.82 1.81.193 1.128.98 1.764 1.811 2.457.98.817 1.986 1.605 3.008 2.368 3.702 2.767 8.158 4.737 12.447 6.382 8.81 3.379 18.42 4.663 27.79 3.497 1.56-.194 2.911-1.207 2.911-2.93 0-1.5-1.334-3.04-2.911-2.93-7.52.525-15.008-.165-22.3-2.1-3.597-.955-7.115-2.215-10.47-3.836-1.652-.799-3.24-1.714-4.867-2.56a59.836 59.836 0 0 1-2.406-1.322c-.46-.267-.906-.566-1.371-.82a2.66 2.66 0 0 0-.721-.344c-.444-.159-.422-.138.066.063l.448 1.704-.171.363-1.17.488.231-.03-1.144-.477.152.148c1.317 1.276 3.313-.332 2.487-1.931" fill="#FCD47C"/><path fill="#F7C037" d="M162.665 50l.335 88.72L79.335 147 79 58.28z"/><path fill="#D6A434" d="M80 148l-39.663-19.467L40 39l39.663 19.467z"/><path fill="#FCD47C" d="M79.421 59L40 39.41 123.58 31 163 50.59z"/><path d="M112 93.5c0 2.485-1.12 4.5-2.5 4.5s-2.5-2.015-2.5-4.5 1.12-4.5 2.5-4.5 2.5 2.015 2.5 4.5m29-3c0 2.485-1.12 4.5-2.5 4.5s-2.5-2.015-2.5-4.5 1.12-4.5 2.5-4.5 2.5 2.015 2.5 4.5" fill="#67489D"/><path d="M58.149 95.23c3.809 10.064 10.573 18.417 19.124 24.828 9.225 6.916 20.19 11.236 31.337 13.867 6.8 1.604 13.74 2.472 20.693 3.068 1.453.124 2.697-1.333 2.697-2.707 0-1.61-1.245-2.53-2.697-2.707-11.314-1.378-22.77-3.552-33.382-7.83-9.239-3.723-17.638-9.39-24.359-16.78A48.168 48.168 0 0 1 62.8 93.263c-1.111-2.635-5.675-.74-4.65 1.968" fill="#FCD47C"/><path d="M115 93.596c1.044 4.575 4.83 7.77 9.083 7.37 4.253-.399 7.536-4.257 7.917-8.966l-17 1.596z" fill="#F05179"/><path d="M8.023 161.023c-2.698 2.699-6.015 3.756-7.409 2.363-1.393-1.394-.336-4.711 2.363-7.41 2.698-2.698 6.015-3.755 7.409-2.362 1.393 1.394.336 4.711-2.363 7.41" fill="#285BBF"/><path d="M9 158.968s6.439 6.891 7.78 7.032c.94-.984 3.22-4.922 3.22-4.922L10.137 153 9 158.968z" fill="#285BBF"/><g transform="translate(171 201)"><mask id="b" fill="#fff"><use xlink:href="#a"/></mask><path d="M6.923.086c3.844-.045 6.98 1.465 7.004 3.374.024 1.91-3.072 3.494-6.915 3.54C3.168 7.044.032 5.533.008 3.624-.017 1.716 3.079.132 6.923.086" fill="#285BBF" mask="url(#b)"/></g><path d="M176 201.601s-.017-9.531-.82-10.601c-1.233.017-5.18 1.152-5.18 1.152L171.557 205l4.443-3.399z" fill="#285BBF"/><path d="M133.659 128.498c.436.475.511 1.215.287 2.04 3.435.21 6.12 1.943 6.053 3.95-.07 2.062-3.023 3.632-6.597 3.505-3.573-.127-6.414-1.902-6.344-3.965.001-.044.006-.088.01-.132-.298-1.116.397-2.813 1.81-4.18 1.726-1.669 3.866-2.214 4.78-1.218m69.001-20c.436.475.511 1.215.287 2.04 3.435.21 6.12 1.943 6.053 3.95-.07 2.062-3.023 3.632-6.597 3.505-3.573-.127-6.414-1.902-6.344-3.965.001-.044.006-.088.01-.132-.298-1.116.397-2.813 1.81-4.18 1.726-1.669 3.866-2.214 4.78-1.218" fill="#FCD47C"/><path d="M335.003 126.216c.89 12.866 4.008 26.907 14.338 35.525 9.98 8.327 23.786 10.534 35.86 5.815 6.688-2.614 13.422-6.946 16.64-13.633.66-1.372-.852-3.537-2.35-2.372-4.537 3.527-8.907 7.307-14.129 9.793a31.618 31.618 0 0 1-16.206 2.944 31.259 31.259 0 0 1-15.369-5.615c-4.704-3.334-8.05-8.17-10.317-13.444-2.669-6.208-4.12-12.88-6.018-19.347-.386-1.31-2.55-1.129-2.449.334m-38.128 7.123c-1.336-3.11-5.908-3.697-8.829-4.108-3.556-.501-7.247-.125-10.76.536-6.697 1.259-13.056 4.407-18.483 8.528-11.99 9.103-19.235 22.519-22.546 37.15-.981 4.332-1.679 8.735-1.981 13.17-.292 4.269-.553 8.777.331 12.993.4 1.902 3.257 1.81 3.713 0 .846-3.363 1.045-6.938 1.515-10.37.48-3.5 1.066-7.014 1.78-10.473 1.392-6.758 3.522-13.36 6.626-19.518 5.742-11.395 15.113-20.347 27.165-24.507 3.196-1.103 6.51-1.82 9.888-1.97 3.276-.143 6.92-.439 10.093.527 1.21.368 1.915-.964 1.488-1.958" fill="#4DA088"/><path d="M253.63 99.992l.152-.147-1.144.477.232.03-1.17-.49-.172-.362.448-1.704c.488-.201.51-.222.066-.063l-.526.224c-.47.236-.913.558-1.368.824-.856.501-1.724.981-2.603 1.439-1.627.846-3.216 1.76-4.868 2.56-3.353 1.622-6.871 2.885-10.468 3.837a68.248 68.248 0 0 1-22.298 2.1c-1.57-.109-2.911 1.426-2.911 2.931 0 1.746 1.344 2.736 2.911 2.93 9.368 1.167 18.98-.117 27.787-3.497 4.29-1.646 8.744-3.615 12.447-6.383a71.448 71.448 0 0 0 3.007-2.37c.834-.696 1.606-1.338 1.811-2.456.404-2.208-2.614-4.148-3.82-1.811-.819 1.586 1.159 3.218 2.487 1.931" fill="#BBF9E7"/><path fill="#5CC6AA" d="M248.335 49L248 137.72l83.665 8.28.335-88.72z"/><path fill="#4DA088" d="M331 146l39.663-19.467L371 37l-39.663 19.467z"/><path fill="#BBF9E7" d="M331.579 58L371 38.41 287.42 30 248 49.59z"/><path d="M297 91.5c0 2.485 1.12 4.5 2.5 4.5s2.5-2.015 2.5-4.5-1.12-4.5-2.5-4.5-2.5 2.015-2.5 4.5m-28-2c0 2.485 1.12 4.5 2.5 4.5s2.5-2.015 2.5-4.5-1.12-4.5-2.5-4.5-2.5 2.015-2.5 4.5" fill="#67489D"/><path d="M347.203 92.27c-8.178 19.394-27.806 30.328-47.382 34.944-6.298 1.485-12.702 2.584-19.124 3.366-1.446.176-2.697 1.118-2.697 2.706 0 1.368 1.238 2.832 2.697 2.707 22.462-1.924 46.98-8.135 62.06-26.276 3.873-4.658 6.949-9.806 9.097-15.48 1.013-2.677-3.526-4.633-4.65-1.968" fill="#BBF9E7"/><path d="M294 92.596c-1.044 4.575-4.83 7.77-9.083 7.37-4.253-.399-7.535-4.257-7.917-8.966l17 1.596z" fill="#F42A64"/><path d="M401.976 159.023c2.699 2.699 6.016 3.756 7.41 2.363 1.393-1.394.336-4.711-2.363-7.41-2.698-2.698-6.015-3.755-7.409-2.362-1.393 1.394-.336 4.711 2.362 7.41" fill="#FDEB80"/><path d="M401 156.968s-6.439 6.891-7.78 7.032c-.94-.984-3.22-4.922-3.22-4.922l9.863-8.078 1.137 5.968zm-168.955 42.033c-3.866-.046-7.02 1.483-7.045 3.416-.024 1.932 3.09 3.536 6.956 3.582 3.866.046 7.02-1.483 7.044-3.416.025-1.932-3.09-3.536-6.955-3.582" fill="#FDEB80"/><path d="M234 200.601s.017-9.531.82-10.601c1.233.017 5.18 1.152 5.18 1.152L238.443 204 234 200.601z" fill="#FDEB80"/><path d="M276.341 127.498c-.436.475-.511 1.215-.287 2.04-3.435.21-6.12 1.943-6.053 3.95.07 2.062 3.023 3.632 6.597 3.505 3.573-.127 6.414-1.902 6.344-3.965-.001-.044-.006-.088-.01-.132.298-1.116-.397-2.813-1.81-4.18-1.726-1.669-3.866-2.214-4.78-1.218m-69.001-20c-.436.475-.511 1.215-.287 2.04-3.435.21-6.12 1.943-6.053 3.95.07 2.062 3.023 3.632 6.597 3.505 3.573-.127 6.414-1.902 6.344-3.965-.001-.044-.006-.088-.01-.132.298-1.116-.397-2.813-1.81-4.18-1.726-1.669-3.866-2.214-4.78-1.218" fill="#BBF9E7"/><mask id="d" fill="#fff"><use xlink:href="#c"/></mask><path fill="#F9AA8E" mask="url(#d)" d="M179 18h9V9h-9z"/><path fill="#E56A6A" mask="url(#d)" d="M188 18h9V9h-9z"/><path fill="#F9AA8E" mask="url(#d)" d="M196 18h9V9h-9z"/><path fill="#E56A6A" mask="url(#d)" d="M205 18h9V9h-9z"/><path fill="#F95858" mask="url(#d)" d="M214 18h9V9h-9z"/><path fill="#F9C0C0" mask="url(#d)" d="M223 18h9V9h-9z"/><path fill="#BC1B1B" mask="url(#d)" d="M232 18h9V9h-9z"/><path fill="#F9C0C0" mask="url(#d)" d="M179 27h9v-9h-9z"/><path fill="#BC1B1B" mask="url(#d)" d="M188 27h9v-9h-9z"/><path fill="#F95858" mask="url(#d)" d="M196 27h9v-9h-9z"/><path fill="#F9AA8E" mask="url(#d)" d="M205 27h9v-9h-9z"/><path fill="#BC1B1B" mask="url(#d)" d="M214 27h9v-9h-9z"/><path fill="#F9AA8E" mask="url(#d)" d="M223 27h9v-9h-9z"/><path fill="#E56A6A" mask="url(#d)" d="M232 27h9v-9h-9z"/><path fill="#F95858" mask="url(#d)" d="M188 36h9v-9h-9z"/><path fill="#F9C0C0" mask="url(#d)" d="M196 36h9v-9h-9z"/><path fill="#E56A6A" mask="url(#d)" d="M205 36h9v-9h-9z"/><path fill="#F9AA8E" mask="url(#d)" d="M214 36h9v-9h-9z"/><path fill="#E56A6A" mask="url(#d)" d="M223 36h9v-9h-9z"/><path fill="#BC1B1B" mask="url(#d)" d="M196 44h9v-9h-9z"/><path fill="#F95858" mask="url(#d)" d="M205 44h9v-9h-9z"/><path fill="#E56A6A" mask="url(#d)" d="M214 44h9v-9h-9z"/><path fill="#BC1B1B" mask="url(#d)" d="M205 53h9v-9h-9zM188 9h9V0h-9z"/><path fill="#F95858" mask="url(#d)" d="M196 9h9V0h-9z"/><path fill="#E56A6A" mask="url(#d)" d="M214 9h9V0h-9z"/><path fill="#F9AA8E" mask="url(#d)" d="M223 9h9V0h-9z"/></g></svg>