<svg id="Layer_1" data-name="Layer 1" xmlns="http://www.w3.org/2000/svg" viewBox="0 0 423 238"><defs><style>.cls-1{fill:#fff;}</style></defs><title>type_white</title><path class="cls-1" d="M321,55.35a61.13,61.13,0,1,0,61.11,61.1A61.21,61.21,0,0,0,321,55.35Zm-266.4.1-8.2,8.14,53,52.91-53,52.91,8.2,8.2,52.91-53,44.77,44.77,8.14,8.2,114-114-8.14-8.14-52.91,52.91-53-52.91-8.14,8.14-44.77,44.77ZM321,66.84a49.61,49.61,0,1,1-49.61,49.61A49.54,49.54,0,0,1,321,66.84ZM160.45,71.73l44.77,44.77-44.77,44.77L115.68,116.5Z"/></svg>